<svg width="100" height="100" viewBox="0 0 100 100" fill="none" xmlns="http://www.w3.org/2000/svg">
  <defs>
    <linearGradient id="islandGrad" x1="0%" y1="0%" x2="100%" y2="100%">
      <stop offset="0%" stop-color="#10B981" />
      <stop offset="50%" stop-color="#14B8A6" />
      <stop offset="100%" stop-color="#06B6D4" />
    </linearGradient>
    
    <filter id="glowEffect">
      <feGaussianBlur stdDeviation="2" result="coloredBlur"/>
      <feMerge>
        <feMergeNode in="coloredBlur"/>
        <feMergeNode in="SourceGraphic"/>
      </feMerge>
    </filter>
  </defs>

  <!-- Background Circle -->
  <circle cx="50" cy="50" r="48" fill="#F0FDF4" />
  <circle cx="50" cy="50" r="48" fill="url(#islandGrad)" opacity="0.1" />
  
  <!-- Island 1 (Sumatra) - Left vertical stroke -->
  <path d="M 25 20 Q 28 18, 32 20 L 32 75 Q 28 77, 25 75 L 25 20 Z" fill="url(#islandGrad)" filter="url(#glowEffect)" />
  <circle cx="28.5" cy="30" r="1.5" fill="#F0FDF4" opacity="0.8" />
  <circle cx="28.5" cy="45" r="2" fill="#F0FDF4" opacity="1" />
  <circle cx="28.5" cy="60" r="1.5" fill="#F0FDF4" opacity="0.8" />
  
  <!-- Island 2 (Java/Kalimantan) - Diagonal connector -->
  <path d="M 32 25 Q 35 23, 38 25 L 65 68 Q 68 70, 65 73 Q 62 71, 60 68 L 32 25 Z" fill="url(#islandGrad)" filter="url(#glowEffect)" />
  <path d="M 40 35 Q 42 33, 44 35 Q 46 37, 48 35" stroke="#F0FDF4" stroke-width="1.5" fill="none" opacity="0.6" stroke-linecap="round" />
  
  <!-- Island 3 (Papua) - Right vertical stroke -->
  <path d="M 68 25 Q 71 23, 75 25 L 75 80 Q 71 82, 68 80 L 68 25 Z" fill="url(#islandGrad)" filter="url(#glowEffect)" />
  <circle cx="71.5" cy="35" r="1.5" fill="#F0FDF4" opacity="0.8" />
  <circle cx="71.5" cy="50" r="2" fill="#F0FDF4" opacity="1" />
  <circle cx="71.5" cy="65" r="1.5" fill="#F0FDF4" opacity="0.8" />
  
  <!-- Ocean waves -->
  <path d="M 20 85 Q 30 83, 40 85 Q 50 87, 60 85 Q 70 83, 80 85" stroke="#14B8A6" stroke-width="1" fill="none" opacity="0.3" stroke-linecap="round" />
  
  <!-- Archipelago dots -->
  <circle cx="35" cy="82" r="1" fill="#10B981" opacity="0.4" />
  <circle cx="45" cy="80" r="1" fill="#10B981" opacity="0.4" />
  <circle cx="55" cy="82" r="1" fill="#10B981" opacity="0.4" />
  <circle cx="65" cy="80" r="1" fill="#10B981" opacity="0.4" />
</svg>
